<svg id="footer_illust" xmlns="http://www.w3.org/2000/svg" width="1920" height="182" viewBox="0 0 1920 182">
  <g id="그룹_167" data-name="그룹 167" transform="translate(0 -5717)">
    <g id="footer_illust-2" data-name="footer_illust" transform="translate(0 5717)">
      <rect id="사각형_224" data-name="사각형 224" width="77.988" height="13.66" transform="translate(700.717 94.739) rotate(90)" fill="#8e8177"/>
      <rect id="사각형_243" data-name="사각형 243" width="23.222" height="9.945" transform="translate(594.11 143.122) rotate(90)" fill="#8e8177"/>
      <rect id="사각형_236" data-name="사각형 236" width="1920" height="16.766" transform="translate(0 164.344)" fill="#8e8177"/>
      <g id="footer_책" transform="translate(1116.187 24.188)">
        <g id="사각형_209" data-name="사각형 209" transform="translate(252.732)" fill="none" stroke="#8e8177" stroke-width="7">
          <rect width="49.72" height="145.986" rx="10" stroke="none"/>
          <rect x="3.5" y="3.5" width="42.72" height="138.986" rx="6.5" fill="none"/>
        </g>
        <g id="패스_212" data-name="패스 212" transform="matrix(0.946, 0.326, -0.326, 0.946, 339.412, 6.687)" fill="none">
          <path d="M9.957-.126,39.548-.5A9.5,9.5,0,0,1,49.379,9.01l-1.53,117.328A10.109,10.109,0,0,1,37.766,136.1l-29.591.373a9.5,9.5,0,0,1-9.831-9.509L-.126,9.635A10.109,10.109,0,0,1,9.957-.126Z" stroke="none"/>
          <path d="M 39.68025207519531 -0.49993896484375 L 39.63613128662109 6.500335693359375 L 10.04505920410156 6.873794555664062 C 8.345916748046875 6.895217895507812 6.893630981445312 8.201553344726562 6.873748779296875 9.726341247558594 L 5.343608856201172 127.0541076660156 C 5.333488464355469 127.8297500610352 5.693584442138672 128.3595275878906 5.997440338134766 128.6673736572266 C 6.294418334960938 128.9682769775391 6.963459014892578 129.4731292724609 8.086940765380859 129.4727478027344 L 37.67801284790039 129.0993194580078 C 39.37715530395508 129.0778961181641 40.82944107055664 127.7715606689453 40.84932327270508 126.2467498779297 L 42.37946319580078 8.918983459472656 C 42.38958358764648 8.143363952636719 42.02948760986328 7.61358642578125 41.72563171386719 7.305740356445312 C 41.42863082885742 7.004837036132812 40.76796340942383 6.50006103515625 39.68025207519531 6.50006103515625 L 39.68025207519531 -0.49993896484375 M 39.68024826049805 -0.49993896484375 C 45.11761093139648 -0.49993896484375 49.44771957397461 3.731552124023438 49.37886810302734 9.010292053222656 L 47.84872817993164 126.3380355834961 C 47.77932357788086 131.6593475341797 43.26529693603516 136.0293731689453 37.7663459777832 136.0987701416016 L 8.175273895263672 136.4721984863281 C 2.676559448242188 136.5416107177734 -1.725200653076172 132.2841033935547 -1.655796051025391 126.9627990722656 L -0.1256561279296875 9.635055541992188 C -0.05625152587890625 4.313766479492188 4.457775115966797 -0.0562591552734375 9.95672607421875 -0.1256561279296875 L 39.54779815673828 -0.499114990234375 C 39.59176635742188 -0.499664306640625 39.63642120361328 -0.49993896484375 39.68024826049805 -0.49993896484375 Z" stroke="none" fill="#8e8177"/>
        </g>
        <g id="사각형_210" data-name="사각형 210" transform="translate(210.319 13.614)" fill="none" stroke="#8e8177" stroke-width="7">
          <rect width="49.72" height="132.372" rx="10" stroke="none"/>
          <rect x="3.5" y="3.5" width="42.72" height="125.372" rx="6.5" fill="none"/>
        </g>
        <g id="사각형_211" data-name="사각형 211" transform="translate(166.776 13.614)" fill="none" stroke="#8e8177" stroke-width="7">
          <rect width="49.72" height="132.372" rx="10" stroke="none"/>
          <rect x="3.5" y="3.5" width="42.72" height="125.372" rx="6.5" fill="none"/>
        </g>
        <g id="사각형_212" data-name="사각형 212" transform="translate(124.363 31.749)" fill="none" stroke="#8e8177" stroke-width="7">
          <rect width="49.72" height="114.829" rx="10" stroke="none"/>
          <rect x="3.5" y="3.5" width="42.72" height="107.829" rx="6.5" fill="none"/>
        </g>
        <g id="사각형_213" data-name="사각형 213" transform="translate(82.515 18.135)" fill="none" stroke="#8e8177" stroke-width="7">
          <rect width="49.72" height="127.851" rx="10" stroke="none"/>
          <rect x="3.5" y="3.5" width="42.72" height="120.851" rx="6.5" fill="none"/>
        </g>
        <g id="패스_213" data-name="패스 213" transform="translate(45.818 17.901) rotate(21)" fill="none">
          <path d="M9.943-.15,39.492-.594a9.427,9.427,0,0,1,9.793,9.461L47.671,112.515a10.15,10.15,0,0,1-10.092,9.76l-29.549.445a9.427,9.427,0,0,1-9.793-9.461L-.15,9.61A10.15,10.15,0,0,1,9.943-.15Z" stroke="none"/>
          <path d="M 39.64939498901367 -0.59527587890625 L 39.59689331054688 6.405105590820312 L 10.04787063598633 6.849632263183594 C 8.338027954101562 6.875358581542969 6.873394012451172 8.189491271972656 6.849597930908203 9.719291687011719 L 5.236461639404297 113.3674926757812 C 5.224689483642578 114.1227188110352 5.571620941162109 114.6361312866211 5.864711761474609 114.9338150024414 C 6.153984069824219 115.2276306152344 6.797370910644531 115.7220001220703 7.925029754638672 115.7201309204102 L 37.47405242919922 115.2756271362305 C 39.18389129638672 115.2499008178711 40.64852905273438 113.9357681274414 40.67232513427734 112.4059677124023 L 42.28546142578125 8.757789611816406 C 42.29721069335938 8.002540588378906 41.95030212402344 7.489128112792969 41.65718841552734 7.191421508789062 C 41.36791610717773 6.897628784179688 40.72239303588867 6.40472412109375 39.64939498901367 6.40472412109375 L 39.64939498901367 -0.59527587890625 M 39.64939117431641 -0.5952835083007812 C 45.06659698486328 -0.5952835083007812 49.36642074584961 3.609901428222656 49.28462219238281 8.86669921875 L 47.67148590087891 112.5149002075195 C 47.58889389038086 117.8225631713867 43.07048416137695 122.1922225952148 37.579345703125 122.2748336791992 L 8.030326843261719 122.7193374633789 C 2.538787841796875 122.8019485473633 -1.845310211181641 118.5662155151367 -1.762699127197266 113.2585601806641 L -0.1495628356933594 9.610359191894531 C -0.0669708251953125 4.302696228027344 4.451438903808594 -0.06696319580078125 9.942573547363281 -0.1495742797851562 L 39.49160003662109 -0.5941009521484375 C 39.54421615600586 -0.5948867797851562 39.59698104858398 -0.5952835083007812 39.64939117431641 -0.5952835083007812 Z" stroke="none" fill="#8e8177"/>
        </g>
      </g>
      <g id="footer_책-2" data-name="footer_책" transform="translate(1107.471 24.188)">
        <rect id="사각형_209-2" data-name="사각형 209" width="49.72" height="145.986" rx="10" transform="translate(252.732)" fill="rgba(142,129,119,0.27)"/>
        <path id="패스_212-2" data-name="패스 212" d="M9.957-.126,39.548-.5A9.5,9.5,0,0,1,49.379,9.01l-1.53,117.328A10.109,10.109,0,0,1,37.766,136.1l-29.591.373a9.5,9.5,0,0,1-9.831-9.509L-.126,9.635A10.109,10.109,0,0,1,9.957-.126Z" transform="matrix(0.946, 0.326, -0.326, 0.946, 339.412, 6.687)" fill="rgba(142,129,119,0.27)"/>
        <rect id="사각형_210-2" data-name="사각형 210" width="49.72" height="132.372" rx="10" transform="translate(210.319 13.614)" fill="rgba(142,129,119,0.27)"/>
        <rect id="사각형_211-2" data-name="사각형 211" width="49.72" height="132.372" rx="10" transform="translate(166.776 13.614)" fill="rgba(142,129,119,0.27)"/>
        <rect id="사각형_212-2" data-name="사각형 212" width="49.72" height="114.829" rx="10" transform="translate(124.363 31.749)" fill="rgba(142,129,119,0.27)"/>
        <rect id="사각형_213-2" data-name="사각형 213" width="49.72" height="127.851" rx="10" transform="translate(82.515 18.135)" fill="rgba(142,129,119,0.27)"/>
        <path id="패스_213-2" data-name="패스 213" d="M9.943-.15,39.492-.594a9.427,9.427,0,0,1,9.793,9.461L47.671,112.515a10.15,10.15,0,0,1-10.092,9.76l-29.549.445a9.427,9.427,0,0,1-9.793-9.461L-.15,9.61A10.15,10.15,0,0,1,9.943-.15Z" transform="translate(45.818 17.901) rotate(21)" fill="rgba(142,129,119,0.27)"/>
      </g>
      <g id="footer_사이드_책" data-name="footer_사이드 책" transform="translate(1483.735 45.153)">
        <g id="사각형_217" data-name="사각형 217" transform="translate(150.968 85.983) rotate(90)" fill="#35405d" stroke="#fff" stroke-width="3">
          <rect width="35.208" height="150.968" rx="14" stroke="none"/>
          <rect x="1.5" y="1.5" width="32.208" height="147.968" rx="12.5" fill="none"/>
        </g>
        <g id="사각형_218" data-name="사각형 218" transform="translate(151.265 55.576) rotate(90)" fill="#35405d" stroke="#fff" stroke-width="3">
          <rect width="35.208" height="151.265" rx="14" stroke="none"/>
          <rect x="1.5" y="1.5" width="32.208" height="148.265" rx="12.5" fill="none"/>
        </g>
        <g id="사각형_219" data-name="사각형 219" transform="translate(151.265 24.762) rotate(90)" fill="#35405d" stroke="#fff" stroke-width="3">
          <rect width="35.208" height="139.529" rx="14" stroke="none"/>
          <rect x="1.5" y="1.5" width="32.208" height="136.529" rx="12.5" fill="none"/>
        </g>
        <path id="패스_171" data-name="패스 171" d="M-31.864,6038.083H96.382v29.284H-36.913v-5.052l126.226.062v-18.993H-36.913v-5.3Z" transform="translate(51.766 -6038.083)" fill="#35405d" stroke="#fff" stroke-linejoin="bevel" stroke-width="2"/>
        <g id="그룹_146" data-name="그룹 146" transform="translate(18.968 5.291)">
          <rect id="사각형_222" data-name="사각형 222" width="118.96" height="1.6" fill="#35405d"/>
          <rect id="사각형_222-2" data-name="사각형 222" width="118.96" height="1.6" transform="translate(0 4.268)" fill="#35405d"/>
          <rect id="사각형_222-3" data-name="사각형 222" width="118.96" height="1.6" transform="translate(0 8.535)" fill="#35405d"/>
          <rect id="사각형_222-4" data-name="사각형 222" width="118.96" height="1.6" transform="translate(0 12.803)" fill="#35405d"/>
          <rect id="사각형_222-5" data-name="사각형 222" width="118.96" height="1.6" transform="translate(0 17.071)" fill="#35405d"/>
        </g>
      </g>
      <g id="footer_로고" transform="translate(1499.451)">
        <path id="패스_144" data-name="패스 144" d="M84.49,205.467v4.153H56.1v-4.153H69.173c4.825,0,7.63-2.186,7.63-5.946,0-3.648-2.637-5.779-7.182-5.779H64.4V189.7H69.79c3.927,0,6.115-1.908,6.115-5.16,0-2.974-2.355-4.827-6.508-4.827H61.148v22.725H56.324V175.562H69.847c6.732,0,10.773,3.31,10.773,8.864a8.57,8.57,0,0,1-3.76,7.3,8.569,8.569,0,0,1,4.77,7.854,8.737,8.737,0,0,1-2.077,5.891Z" transform="translate(-49.252 -161.243)" fill="#719ad0"/>
        <path id="패스_145" data-name="패스 145" d="M123.942,210.991v4.153H94.09v-4.153h6.229a10.58,10.58,0,0,1-3.367-8.246,12,12,0,0,1,12.4-12.4c7.016,0,11.728,5.051,11.728,12.4a6.473,6.473,0,0,1-.281,1.908H104.7v-4.041h11.5a6.7,6.7,0,0,0-6.958-6.115c-4.377,0-7.575,3.422-7.575,8.249s3.367,8.246,8.642,8.246Z" transform="translate(-63.45 -166.768)" fill="#719ad0"/>
        <path id="패스_146" data-name="패스 146" d="M171.643,211.178v4.153H140.356v-4.153h1.891a11.4,11.4,0,0,1-3.086-8.191c0-7.013,5.163-11.9,12.569-12.119,2.131-.057,16.491,0,18.625,0v4.151c-2.077,0-16.437-.055-18.513,0a8.08,8.08,0,0,0,0,16.159Z" transform="translate(-80.296 -166.954)" fill="#719ad0"/>
        <g id="그룹_119" data-name="그룹 119" transform="translate(69.939 30.166)">
          <path id="패스_147" data-name="패스 147" d="M156.843,201.8h0Z" transform="translate(-156.843 -201.216)" fill="#fff"/>
          <rect id="사각형_188" data-name="사각형 188" width="19.768" height="1.171" fill="#719ad0"/>
        </g>
        <g id="그룹_120" data-name="그룹 120" transform="translate(67.73 32.852)">
          <path id="패스_148" data-name="패스 148" d="M153.317,206.091h0Z" transform="translate(-153.317 -205.505)" fill="#fff"/>
          <rect id="사각형_189" data-name="사각형 189" width="22.028" height="1.171" fill="#719ad0"/>
        </g>
        <g id="그룹_121" data-name="그룹 121" transform="translate(67.479 35.538)">
          <path id="패스_149" data-name="패스 149" d="M152.915,210.38h0Z" transform="translate(-152.915 -209.794)" fill="#fff"/>
          <rect id="사각형_190" data-name="사각형 190" width="22.28" height="1.171" fill="#719ad0"/>
        </g>
        <g id="그룹_122" data-name="그룹 122" transform="translate(67.479 38.224)">
          <path id="패스_150" data-name="패스 150" d="M152.915,214.669h0Z" transform="translate(-152.915 -214.084)" fill="#fff"/>
          <rect id="사각형_191" data-name="사각형 191" width="22.28" height="1.171" fill="#719ad0"/>
        </g>
        <g id="그룹_123" data-name="그룹 123" transform="translate(69.405 40.91)">
          <path id="패스_151" data-name="패스 151" d="M155.991,218.958h0Z" transform="translate(-155.991 -218.373)" fill="#fff"/>
          <rect id="사각형_192" data-name="사각형 192" width="20.857" height="1.171" transform="translate(0)" fill="#719ad0"/>
        </g>
        <path id="패스_152" data-name="패스 152" d="M162.026,205.132l-1.044.916a13.033,13.033,0,0,1-8.6,3.238H43.337v-4.153H151.008c6.789,0,11.671-5.441,11.671-13.128,0-7.632-4.882-13.185-11.671-13.185S139.337,184.371,139.337,192a15.178,15.178,0,0,0,3.479,10.042h-5.163c-1.965-2.355-3.141-6.17-3.141-10.042,0-10.044,6.956-17.338,16.5-17.338s16.5,7.294,16.5,17.338c0,5.555-2.019,10.157-5.5,13.128Z" transform="translate(-43.337 -160.908)" fill="#35405d"/>
        <path id="패스_153" data-name="패스 153" d="M229.95,180.831s7.958-7.136,16.874-1.336c0,0,5.151,3.986.626,4.454-1.752.182-4.441-.931-7.418-1.5-3.964-.753-8.143-1.289-9.371-1.44l-.358-.043" transform="translate(-114.228 -161.864)" fill="#294b23"/>
        <path id="패스_154" data-name="패스 154" d="M225.636,171.387s5.537-9.143-1.816-16.829c0,0-4.872-4.322-4.493.211.147,1.756,1.738,4.191,2.846,7.011,1.475,3.756,2.777,7.764,3.153,8.941l.109.344" transform="translate(-110.25 -152.698)" fill="#294b23"/>
      </g>
      <g id="footer_화분" transform="translate(285)">
        <rect id="사각형_216" data-name="사각형 216" width="131.123" height="21.939" rx="10.969" transform="translate(25.213 144.405)" fill="#8e8177"/>
        <g id="그룹_145" data-name="그룹 145" transform="translate(0 0)">
          <path id="패스_193" data-name="패스 193" d="M66.195,49.172S64.626,4.075,1.535,0c0,0-3.453,1.3,0,2.037S55.523,3.149,63.684,49.172Z" transform="matrix(0.993, 0.122, -0.122, 0.993, 39.727, 89.662)" fill="#294b23"/>
          <path id="패스_194" data-name="패스 194" d="M11.406,25.742c5.637-8.016,0-25.742,0-25.742s.618.678-5.058,5.419S-.535,16.8.19,19.1s3.5,11.381,9.3,10.974Z" transform="matrix(0.53, 0.848, -0.848, 0.53, 80.21, 104.227)" fill="#294b23"/>
          <g id="그룹_144" data-name="그룹 144" transform="translate(0 0)">
            <path id="패스_205" data-name="패스 205" d="M0,9.24S20.379-9.035,43.211,5.817c0,0,13.191,10.208,1.6,11.407-4.487.465-11.372-2.383-19-3.831-10.15-1.928-20.853-3.3-24-3.689C1.227,9.631.9,9.594.9,9.594" transform="translate(42.675 129.423) rotate(-61)" fill="#294b23"/>
            <path id="패스_204" data-name="패스 204" d="M16.21,47.859s14.18-23.415-4.649-43.1c0,0-12.477-11.069-11.507.54C.429,9.8,4.5,16.038,7.341,23.259c3.777,9.618,7.111,19.882,8.075,22.9.181.569.279.88.279.88" transform="translate(0 125.284) rotate(-61)" fill="#294b23"/>
            <path id="패스_172" data-name="패스 172" d="M-930.206,6078s1.569-76.431,64.661-83.336c0,0,3.453,2.2,0,3.453S-919.534,6000-927.695,6078Z" transform="translate(1041.029 -5944.305)" fill="#294b23"/>
            <path id="패스_173" data-name="패스 173" d="M66.2,83.337S64.626,6.906,1.535,0c0,0-3.453,2.2,0,3.453S55.523,5.337,63.684,83.337Z" transform="translate(49.613 53.818) rotate(-3)" fill="#294b23"/>
            <path id="패스_190" data-name="패스 190" d="M23.1,98.014S22.556,8.122.536,0c0,0-1.205,2.584,0,4.061S19.379,6.277,22.227,98.014Z" transform="matrix(0.993, 0.122, -0.122, 0.993, 87.582, 35.092)" fill="#294b23"/>
            <path id="패스_174" data-name="패스 174" d="M.257,35.289C-.322,22.473.257,0,.257,0S-.693.929,8.036,7.429s10.587,15.6,9.472,18.759-5.386,15.6-14.3,15.044Z" transform="matrix(-0.07, -0.998, 0.998, -0.07, 169.846, 51.792)" fill="#294b23"/>
            <path id="패스_192" data-name="패스 192" d="M.257,35.289C-.322,22.473.257,0,.257,0S-.693.929,8.036,7.429s10.587,15.6,9.472,18.759-5.386,15.6-14.3,15.044Z" transform="translate(59.486 96.05) rotate(100)" fill="#294b23"/>
            <path id="패스_196" data-name="패스 196" d="M.257,35.289C-.322,22.473.257,0,.257,0S-.693.929,8.036,7.429s10.587,15.6,9.472,18.759-5.386,15.6-14.3,15.044Z" transform="translate(90.599 39.042) rotate(127)" fill="#294b23"/>
            <path id="패스_175" data-name="패스 175" d="M17.542,35.289c.579-12.815,0-35.289,0-35.289s.951.929-7.779,7.429S-.823,23.031.292,26.188s5.386,15.6,14.3,15.044Z" transform="matrix(-0.07, -0.998, 0.998, -0.07, 171.087, 69.549)" fill="#294b23"/>
            <path id="패스_191" data-name="패스 191" d="M17.542,35.289c.579-12.815,0-35.289,0-35.289s.951.929-7.779,7.429S-.823,23.031.292,26.188s5.386,15.6,14.3,15.044Z" transform="translate(62.578 78.52) rotate(100)" fill="#294b23"/>
            <path id="패스_195" data-name="패스 195" d="M17.542,35.289c.579-12.815,0-35.289,0-35.289s.951.929-7.779,7.429S-.823,23.031.292,26.188s5.386,15.6,14.3,15.044Z" transform="translate(101.311 24.825) rotate(127)" fill="#294b23"/>
            <path id="패스_176" data-name="패스 176" d="M8.5,21.95C12.7,15.115,8.5,0,8.5,0s.461.578-3.77,4.621S-.4,14.325.141,16.289s2.611,9.7,6.931,9.358Z" transform="matrix(0.454, -0.891, 0.891, 0.454, 152.574, 65.76)" fill="#294b23"/>
            <path id="패스_178" data-name="패스 178" d="M9.111,23.355c4.5-7.273,0-23.355,0-23.355S9.6.614,5.071,4.917-.427,15.242.151,17.332s2.8,10.326,7.427,9.957Z" transform="translate(137.031 70.358) rotate(-45)" fill="#294b23"/>
            <path id="패스_179" data-name="패스 179" d="M11.407,25.742c5.637-8.016,0-25.742,0-25.742s.618.678-5.058,5.419S-.535,16.8.19,19.1s3.5,11.381,9.3,10.974Z" transform="translate(122.757 98.363) rotate(-84)" fill="#294b23"/>
            <path id="패스_182" data-name="패스 182" d="M11.946,33.209c5.9-10.341,0-33.209,0-33.209s.647.874-5.3,6.991S-.56,21.673.2,24.644,3.866,39.327,9.938,38.8Z" transform="translate(115.371 117.182) rotate(-87)" fill="#294b23"/>
            <path id="패스_183" data-name="패스 183" d="M11.407,25.742c5.637-8.016,0-25.742,0-25.742s.618.678-5.058,5.419S-.535,16.8.19,19.1s3.5,11.381,9.3,10.974Z" transform="translate(110.982 133.091) rotate(-86)" fill="#294b23"/>
            <path id="패스_177" data-name="패스 177" d="M11.327,23.281c5.6-7.249,0-23.281,0-23.281S11.941.613,6.3,4.9-.531,15.194.188,17.277,3.666,27.57,9.422,27.2Z" transform="translate(159.138 47.447) rotate(117)" fill="#294b23"/>
            <path id="패스_185" data-name="패스 185" d="M11.406,25.742c5.637-8.016,0-25.742,0-25.742s.618.678-5.058,5.419S-.535,16.8.19,19.1s3.5,11.381,9.3,10.974Z" transform="translate(44.709 46.294) rotate(45)" fill="#294b23"/>
            <path id="패스_186" data-name="패스 186" d="M11.406,25.742c5.637-8.016,0-25.742,0-25.742s.618.678-5.058,5.419S-.535,16.8.19,19.1s3.5,11.381,9.3,10.974Z" transform="matrix(-0.961, 0.276, -0.276, -0.961, 62.578, 54.02)" fill="#294b23"/>
            <path id="패스_188" data-name="패스 188" d="M11.406,25.742c5.637-8.016,0-25.742,0-25.742s.618.678-5.058,5.419S-.535,16.8.19,19.1s3.5,11.381,9.3,10.974Z" transform="matrix(-0.961, 0.276, -0.276, -0.961, 99.706, 67.523)" fill="#294b23"/>
            <path id="패스_197" data-name="패스 197" d="M11.406,25.742c5.637-8.016,0-25.742,0-25.742s.618.678-5.058,5.419S-.535,16.8.19,19.1s3.5,11.381,9.3,10.974Z" transform="translate(105.203 61.148) rotate(-141)" fill="#294b23"/>
            <path id="패스_198" data-name="패스 198" d="M5.605,18.49c2.77-5.757,0-18.49,0-18.49s.3.487-2.485,3.893S-.263,12.067.093,13.721,1.814,21.9,4.663,21.6Z" transform="matrix(-0.927, 0.375, -0.375, -0.927, 78.354, 101.164)" fill="#294b23"/>
            <path id="패스_180" data-name="패스 180" d="M13.979,27.079c6.909-8.432,0-27.079,0-27.079s.758.713-6.2,5.7S-.656,17.673.232,20.1s4.292,11.972,11.4,11.545Z" transform="matrix(-0.788, 0.616, -0.616, -0.788, 142.188, 69.425)" fill="#294b23"/>
            <path id="패스_181" data-name="패스 181" d="M8.873,21.278C13.259,14.653,8.873,0,8.873,0s.481.56-3.934,4.48S-.416,13.887.147,15.791,2.872,25.2,7.381,24.862Z" transform="matrix(-0.656, 0.755, -0.755, -0.656, 128.618, 85.35)" fill="#294b23"/>
            <path id="패스_199" data-name="패스 199" d="M5.351,11.2C8,7.71,5.351,0,5.351,0s.29.295-2.373,2.357S-.251,7.307.089,8.309s1.643,4.95,4.363,4.773Z" transform="translate(101.311 66.394) rotate(104)" fill="#294b23"/>
            <path id="패스_200" data-name="패스 200" d="M5.351,11.2C8,7.71,5.351,0,5.351,0s.29.295-2.373,2.357S-.251,7.307.089,8.309s1.643,4.95,4.363,4.773Z" transform="translate(102.567 99.499) rotate(-116)" fill="#294b23"/>
            <path id="패스_201" data-name="패스 201" d="M5.351,11.2C8,7.71,5.351,0,5.351,0s.29.295-2.373,2.357S-.251,7.307.089,8.309s1.643,4.95,4.363,4.773Z" transform="translate(102.567 80.454) rotate(-116)" fill="#294b23"/>
            <path id="패스_202" data-name="패스 202" d="M5.351,11.2C8,7.71,5.351,0,5.351,0s.29.295-2.373,2.357S-.251,7.307.089,8.309s1.643,4.95,4.363,4.773Z" transform="translate(101.701 113.637) rotate(115)" fill="#294b23"/>
            <path id="패스_203" data-name="패스 203" d="M5.351,11.2C8,7.71,5.351,0,5.351,0s.29.295-2.373,2.357S-.251,7.307.089,8.309s1.643,4.95,4.363,4.773Z" transform="matrix(-0.174, -0.985, 0.985, -0.174, 99.551, 130.421)" fill="#294b23"/>
            <path id="패스_184" data-name="패스 184" d="M11.406,25.742c5.637-8.016,0-25.742,0-25.742s.618.678-5.058,5.419S-.535,16.8.19,19.1s3.5,11.381,9.3,10.974Z" transform="translate(117.668 97.337) rotate(89)" fill="#294b23"/>
            <path id="패스_189" data-name="패스 189" d="M11.406,25.742c5.637-8.016,0-25.742,0-25.742s.618.678-5.058,5.419S-.535,16.8.19,19.1s3.5,11.381,9.3,10.974Z" transform="translate(105.186 77.99) rotate(89)" fill="#294b23"/>
            <path id="패스_187" data-name="패스 187" d="M11.406,25.742c5.637-8.016,0-25.742,0-25.742s.618.678-5.058,5.419S-.535,16.8.19,19.1s3.5,11.381,9.3,10.974Z" transform="translate(59.751 54.978) rotate(23)" fill="#294b23"/>
          </g>
        </g>
        <rect id="사각형_215" data-name="사각형 215" width="147.449" height="14.796" rx="7.398" transform="translate(16.54 133.69)" fill="#8e8177"/>
      </g>
    </g>
    <g id="그룹_168" data-name="그룹 168" transform="translate(-180 25.312)">
      <circle id="타원_60" data-name="타원 60" cx="39.538" cy="39.538" r="39.538" transform="translate(738.925 5751)" fill="rgba(113,154,208,0.6)"/>
      <path id="패스_221" data-name="패스 221" d="M-1110.038,5185.115c2.007-15.7,10.54-4.949,17.366,1.195s1.706,9.215,3.925,13.481,7.338.512,7.167,7-11.946,11.434-11.946,11.434a34.386,34.386,0,0,1-6.786-6.042,57.666,57.666,0,0,1-4.477-6.756C-1108.4,5199.681-1110.921,5192.023-1110.038,5185.115Z" transform="translate(1848.963 604.212)" fill="rgba(255,255,255,0.6)"/>
      <path id="패스_223" data-name="패스 223" d="M-1073.236,5183.422c-3.537,3.151-11.444,6.065-7.462,14.394s22.242,3.827,26.792,0-8.646-5.615-6.75-9.441S-1069.7,5180.271-1073.236,5183.422Z" transform="translate(1853.714 569.497)" fill="#dce6f3"/>
      <path id="패스_224" data-name="패스 224" d="M8.556,1.095C5.019,4.246-2.888,7.16,1.094,15.489s22.242,3.827,26.792,0-8.646-5.615-6.75-9.441S12.093-2.057,8.556,1.095Z" transform="translate(817.924 5808.943) rotate(158)" fill="#dce6f3"/>
      <path id="패스_222" data-name="패스 222" d="M-1072.944,5183.157c-3.183,2.389-6.426,3.413-2.842,9.727s5.461,7.85,9.557,4.949,2.9-8.021,4.608-10.922S-1069.761,5180.768-1072.944,5183.157Z" transform="translate(1843.17 603.268)" fill="#dce6f3"/>
      <g id="패스_220" data-name="패스 220" transform="translate(729.23 5755.496)" fill="none">
        <path d="M41,0A41,41,0,1,1,0,41,41,41,0,0,1,41,0Z" stroke="none"/>
        <path d="M 40.99570465087891 6.000007629394531 C 21.69900512695312 6.000007629394531 6.000007629394531 21.69900512695312 6.000007629394531 40.99570465087891 C 6.000007629394531 60.29240417480469 21.69900512695312 75.99140167236328 40.99570465087891 75.99140167236328 C 60.29240417480469 75.99140167236328 75.99140167236328 60.29240417480469 75.99140167236328 40.99570465087891 C 75.99140167236328 21.69900512695312 60.29240417480469 6.000007629394531 40.99570465087891 6.000007629394531 M 40.99570465087891 7.62939453125e-06 C 63.63700485229492 7.62939453125e-06 81.99140167236328 18.35440444946289 81.99140167236328 40.99570465087891 C 81.99140167236328 63.63700485229492 63.63700485229492 81.99140167236328 40.99570465087891 81.99140167236328 C 18.35440444946289 81.99140167236328 7.62939453125e-06 63.63700485229492 7.62939453125e-06 40.99570465087891 C 7.62939453125e-06 18.35440444946289 18.35440444946289 7.62939453125e-06 40.99570465087891 7.62939453125e-06 Z" stroke="none" fill="#8e8177"/>
      </g>
    </g>
  </g>
  <text id="ZERO" transform="translate(701 162)" fill="#35405d" stroke="#35405d" stroke-width="4" font-size="60" font-family="SegoeUI, Segoe UI" letter-spacing="0.005em"><tspan x="0" y="0">ZERO</tspan></text>
  <text id="WASTE" transform="translate(848 163)" fill="#8e8177" stroke="#8e8177" stroke-width="4" font-size="60" font-family="SegoeUI, Segoe UI" letter-spacing="0.005em"><tspan x="0" y="0">WASTE</tspan></text>
</svg>
